<svg xmlns="http://www.w3.org/2000/svg" width="1200" height="630" viewBox="0 0 1200 630" role="img" aria-labelledby="title desc">
  <title id="title">Evo Engineering master social card</title>
  <desc id="desc">Dark industrial Evo Engineering social card with existing logo, gold accents, and faint system blueprint background.</desc>
  <defs><linearGradient id="bg" x1="0" y1="0" x2="1" y2="1"><stop offset="0" stop-color="#030607"/><stop offset="1" stop-color="#090d0d"/></linearGradient><linearGradient id="readability" x1="0" y1="0" x2="1" y2="0"><stop offset="0" stop-color="#000" stop-opacity="0.84"/><stop offset="0.62" stop-color="#000" stop-opacity="0.46"/><stop offset="1" stop-color="#000" stop-opacity="0"/></linearGradient><filter id="softGlow" x="-35%" y="-35%" width="170%" height="170%"><feGaussianBlur stdDeviation="3" result="blur"/><feMerge><feMergeNode in="blur"/><feMergeNode in="SourceGraphic"/></feMerge></filter><style>:root { --evo-gold: #dca43a; --evo-gold-bright: #f4be4e; --evo-white: #f6f7f7; --evo-muted: #bcc1c1; --steel: #7e8886; } text { font-family: "Segoe UI", Arial, sans-serif; }</style></defs>
  <!-- Swap points: #logo href, #title-line-1/#title-line-2, #tagline, and #background-art. -->
  <rect width="1200" height="630" fill="url(#bg)"/>
  <g id="background-art">
    <g stroke="#7c827c" stroke-opacity="0.055" stroke-width="1"><path d="M0 48H1200M0 96H1200M0 144H1200M0 192H1200M0 240H1200M0 288H1200M0 336H1200M0 384H1200M0 432H1200M0 480H1200M0 528H1200M0 576H1200"/><path d="M48 0V630M96 0V630M144 0V630M192 0V630M240 0V630M288 0V630M336 0V630M384 0V630M432 0V630M480 0V630M528 0V630M576 0V630M624 0V630M672 0V630M720 0V630M768 0V630M816 0V630M864 0V630M912 0V630M960 0V630M1008 0V630M1056 0V630M1104 0V630M1152 0V630"/></g>
    <g id="system-blueprint" fill="none" stroke-linecap="round" stroke-linejoin="round"><rect x="742" y="132" width="90" height="44" rx="3" stroke="var(--steel)" stroke-opacity="0.135"/><rect x="918" y="118" width="100" height="44" rx="3" stroke="var(--steel)" stroke-opacity="0.135"/><rect x="776" y="296" width="108" height="46" rx="3" stroke="var(--steel)" stroke-opacity="0.135"/><rect x="988" y="312" width="112" height="46" rx="3" stroke="var(--steel)" stroke-opacity="0.135"/><rect x="850" y="464" width="104" height="46" rx="3" stroke="var(--steel)" stroke-opacity="0.135"/><path d="M832 154H872V140H918M792 176V232H830V296M884 319H936V335H988M1034 162V240H1044V312M830 342V486H850M954 487H1072V358M742 154H702V430H820V464" stroke="var(--evo-gold)" stroke-opacity="0.10"/><path d="M802 270A128 128 0 0 1 1058 270M724 420A118 118 0 0 1 844 330M972 438A78 78 0 0 1 1128 438" stroke="var(--steel)" stroke-opacity="0.065"/></g>
    <g fill="var(--evo-gold-bright)" fill-opacity="0.15"><circle cx="872" cy="154" r="3"/><circle cx="792" cy="232" r="3"/><circle cx="830" cy="296" r="3"/><circle cx="936" cy="319" r="3"/><circle cx="1044" cy="240" r="3"/><circle cx="1072" cy="487" r="3"/><circle cx="820" cy="430" r="3"/></g>
  </g>
  <rect width="910" height="630" fill="url(#readability)"/><rect x="1" y="1" width="1198" height="628" fill="none" stroke="var(--evo-gold)" stroke-opacity="0.43" stroke-width="2"/>
  <rect x="79" y="95" width="128" height="128" fill="none" stroke="var(--evo-gold-bright)" stroke-opacity="0.68" stroke-width="2" filter="url(#softGlow)"/><image id="logo" href="../../images/evo_logo.jpg" x="84" y="100" width="118" height="118" preserveAspectRatio="xMidYMid meet"/>
  <text id="title-line-1" x="260" y="178" font-size="92" font-weight="800" fill="var(--evo-gold-bright)">Evo</text><text id="title-line-2" x="260" y="266" font-size="92" font-weight="800" fill="var(--evo-white)">Engineering</text><line x1="84" y1="322" x2="790" y2="322" stroke="var(--evo-gold-bright)" stroke-width="2"/><circle cx="787" cy="322" r="5" fill="var(--evo-gold-bright)" opacity="0.7"/>
  <text id="tagline" x="84" y="391" font-size="34" font-weight="300" fill="var(--evo-muted)">Engineering clarity for complex systems.</text>
  <g id="domain-icons" stroke="var(--evo-gold)" stroke-width="2" fill="none" opacity="0.92"><path d="M114 486V538M88 538L114 486L140 538M96 500H132M98 516H130M101 528H127"/><line x1="160" y1="478" x2="160" y2="540" stroke-opacity="0.52"/><path d="M190 532V508H202V532M212 532V496H224V532M186 506L206 488L232 496L240 488M232 480L240 488L232 496"/><line x1="260" y1="478" x2="260" y2="540" stroke-opacity="0.52"/><path d="M288 536H342V506L324 496L310 506V492H300V506H288Z"/><rect x="324" y="491" width="10" height="15"/><line x1="360" y1="478" x2="360" y2="540" stroke-opacity="0.52"/><rect x="388" y="492" width="58" height="40"/><path d="M408 505L398 512L408 520M426 505L436 512L426 520"/><line x1="460" y1="478" x2="460" y2="540" stroke-opacity="0.52"/><path d="M518 488L544 499L540 526L518 542L496 526L492 499Z"/><path d="M507 515L515 523L531 505"/></g>
  <text id="strapline" x="84" y="593" font-size="20" font-weight="800" letter-spacing="4" fill="#ffc752">BUILD SYSTEMS THAT REDUCE UNNECESSARY WORK.</text>
</svg>
